HIERARCHY
ROOT hip
{
	OFFSET 0.000000 0.000000 0.000000 
	CHANNELS 6 Xposition Yposition Zposition Xrotation Zrotation Yrotation
	JOINT abdomen
	{
		OFFSET 0.000000 3.402643 0.000000 
		CHANNELS 3 Xrotation Zrotation Yrotation
		JOINT chest
		{
			OFFSET 0.000000 8.438565 -0.680529 
			CHANNELS 3 Xrotation Zrotation Yrotation
			JOINT neck
			{
				OFFSET 0.000000 10.207942 -0.272212 
				CHANNELS 3 Xrotation Zrotation Yrotation
				JOINT head
				{
					OFFSET 0.000000 3.130431 0.000000 
					CHANNELS 3 Xrotation Zrotation Yrotation
					End Site
					{
						OFFSET 0.000000 3.130435 0.000000 
					}
				}
			}
			JOINT lCollar
			{
				OFFSET 3.470700 6.669187 -0.816635 
				CHANNELS 3 Yrotation Zrotation Xrotation
				JOINT lShldr
				{
					OFFSET 3.198488 0.000000 0.000000 
					CHANNELS 3 Zrotation Yrotation Xrotation
					JOINT lForeArm
					{
						OFFSET 10.139888 0.000000 0.000000 
						CHANNELS 3 Yrotation Zrotation Xrotation
						JOINT lHand
						{
							OFFSET 8.370511 0.000000 0.000000 
							CHANNELS 3 Zrotation Yrotation Xrotation
							End Site
							{
								OFFSET 4.083176 0.000000 0.000000 
							}
						}
					}
				}
			}
			JOINT rCollar
			{
				OFFSET -3.470700 6.669187 -0.816635 
				CHANNELS 3 Yrotation Zrotation Xrotation
				JOINT rShldr
				{
					OFFSET -3.198488 0.000000 0.000000 
					CHANNELS 3 Zrotation Yrotation Xrotation
					JOINT rForeArm
					{
						OFFSET -10.139888 0.000000 0.000000 
						CHANNELS 3 Yrotation Zrotation Xrotation
						JOINT rHand
						{
							OFFSET -8.370511 0.000000 0.000000 
							CHANNELS 3 Zrotation Yrotation Xrotation
							End Site
							{
								OFFSET -4.083176 0.000000 0.000000 
							}
						}
					}
				}
			}
		}
	}
	JOINT lThigh
	{
		OFFSET 5.308129 -1.633274 1.361059 
		CHANNELS 3 Xrotation Zrotation Yrotation
		JOINT lShin
		{
			OFFSET -2.041588 -20.007561 0.000000 
			CHANNELS 3 Xrotation Zrotation Yrotation
			JOINT lFoot
			{
				OFFSET 0.000000 -19.190928 -1.224953 
				CHANNELS 3 Xrotation Yrotation Zrotation
				End Site
				{
					OFFSET 0.000000 -2.449906 4.627600 
				}
			}
		}
	}
	JOINT rThigh
	{
		OFFSET -5.308129 -1.633274 1.361059 
		CHANNELS 3 Xrotation Zrotation Yrotation
		JOINT rShin
		{
			OFFSET 2.041588 -20.007561 0.000000 
			CHANNELS 3 Xrotation Zrotation Yrotation
			JOINT rFoot
			{
				OFFSET 0.000000 -19.190928 -1.224953 
				CHANNELS 3 Xrotation Yrotation Zrotation
				End Site
				{
					OFFSET 0.000000 -2.449906 4.627600 
				}
			}
		}
	}
}
MOTION
Frames: 10
Frame Time: 0.016667
-1.102374 58.994797 -4.759114 65.471916 -0.740985 -3.262077 17.864286 -10.331449 -0.616668 2.601267 -5.340972 1.009673 16.387381 17.819645 4.496111 10.833884 2.538701 0.968011 0.199631 1.274112 -7.169871 -76.056030 33.972301 14.877028 -56.071388 23.698885 8.906457 8.085008 4.696274 -15.054990 0.925159 -1.100054 -7.138729 -9.291217 6.882050 5.323620 113.213791 -30.871773 37.040569 -8.103680 -4.708190 -15.018762 -1.678692 -5.471694 -7.025968 19.355375 -0.488316 2.019444 44.793377 10.379107 -0.602588 0.009505 -1.285181 -0.717795 0.008671 -0.017489 0.000645 46.992176 -0.036271 0.001726 
-1.182009 59.011475 -4.841535 65.666092 -0.956149 -2.461410 18.147772 -10.077991 -0.298702 2.662771 -5.252297 1.421691 15.904657 18.313051 3.745701 10.574263 2.548681 0.615929 0.349837 1.106872 -7.364649 -76.919907 33.825169 14.025051 -56.038570 23.677443 8.890740 8.085008 4.696274 -15.054990 1.092215 -1.320170 -7.246258 -10.415684 8.495615 7.718818 110.418159 -31.118305 35.586647 -8.103680 -4.708190 -15.018762 -1.678687 -5.471695 -7.025968 19.355375 -0.488313 2.019444 44.791275 10.385258 -0.593917 0.009494 -1.285181 -0.717796 0.008676 -0.017487 0.000645 46.972649 -0.032611 0.001546 
-1.245896 59.037781 -4.903438 65.910881 -1.103052 -1.660601 18.362370 -9.833982 0.038489 2.657886 -5.114553 1.842555 15.430757 18.805563 2.912139 10.534710 2.919798 0.528152 0.525872 0.925539 -7.510592 -77.933861 33.576164 12.953096 -55.973228 23.666258 8.865834 8.085008 4.696274 -15.054990 1.270953 -1.531180 -7.294953 -11.075855 9.933146 9.944580 107.293022 -31.336796 33.971050 -8.103680 -4.708190 -15.018762 -1.678688 -5.471697 -7.025968 19.355375 -0.488316 2.019444 44.793579 10.381792 -0.611678 0.009504 -1.285179 -0.717795 0.008676 -0.017487 0.000645 46.972649 -0.031000 0.001470 
-1.309782 59.064079 -4.965341 66.141945 -1.259624 -0.859597 18.579880 -9.589641 0.375669 2.646111 -4.976633 2.254565 14.941504 19.285219 2.072480 10.493458 3.290923 0.430661 0.711835 0.751814 -7.646730 -78.932449 33.313999 11.893912 -55.908630 23.637291 8.849788 8.085008 4.696274 -15.054990 1.458723 -1.743990 -7.353615 -11.682511 11.399964 12.161701 104.162758 -31.464808 32.353043 -8.103680 -4.708190 -15.018762 -1.678698 -5.471696 -7.025968 19.355375 -0.488315 2.019444 44.792458 10.387017 -0.611931 0.009499 -1.285181 -0.717796 0.008677 -0.017486 0.000645 46.982407 -0.037245 0.010735 
-1.363032 59.080345 -5.022542 66.349342 -1.416015 -0.068580 18.796961 -9.354718 0.732093 2.621953 -4.848095 2.714376 14.432883 19.712715 1.213956 10.426060 3.583949 0.254631 0.903905 0.625124 -7.812229 -80.029175 33.136654 10.587558 -55.890213 23.625755 8.837420 8.085008 4.696274 -15.054990 1.661073 -1.910871 -7.441183 -11.765318 12.621531 14.167796 101.054520 -31.522285 30.721054 -8.103680 -4.708190 -15.018762 -1.678694 -5.471696 -7.025967 19.355375 -0.488315 2.019444 44.793240 10.387027 -0.620891 0.009495 -1.285180 -0.717796 0.008679 -0.017485 0.000645 46.972637 -0.042802 0.002029 
-1.416281 59.096600 -5.079741 66.562195 -1.572141 0.722920 19.017183 -9.109713 1.086953 2.601200 -4.709635 3.164483 13.916869 20.116858 0.346269 10.347105 3.886715 0.078607 1.096601 0.507002 -7.977629 -81.102898 32.934418 9.301778 -55.869411 23.622299 8.820023 8.085008 4.696274 -15.054990 1.873882 -2.069972 -7.528970 -11.796262 13.843845 16.191242 97.957825 -31.509121 29.095041 -8.103680 -4.708190 -15.018762 -1.678696 -5.471696 -7.025968 19.355375 -0.488313 2.019444 44.814526 10.374815 -0.605838 0.009508 -1.285179 -0.717795 0.008680 -0.017485 0.000645 46.972645 -0.036295 0.001721 
-1.462408 59.123032 -5.124827 66.759735 -1.708341 1.572731 19.146751 -8.854505 1.481956 2.667391 -4.454001 3.623590 13.358600 20.516497 -0.614922 10.383842 4.365234 0.039692 1.318434 0.326483 -8.045104 -82.193344 32.637653 7.987175 -55.739437 23.581903 8.774796 8.085008 4.696274 -15.054990 2.095857 -2.256489 -7.518762 -11.326539 14.765153 17.703423 94.653336 -31.404957 27.385218 -8.103680 -4.708190 -15.018762 -1.678682 -5.471697 -7.025968 19.355375 -0.488314 2.019444 44.793663 10.377777 -0.602510 0.009502 -1.285181 -0.717795 0.008672 -0.017488 0.000645 46.982414 -0.033087 0.010537 
-1.508530 59.149464 -5.169904 66.952400 -1.863568 2.423134 19.271580 -8.599019 1.865832 2.746742 -4.208080 4.082767 12.799844 20.901051 -1.567017 10.419922 4.853516 0.000826 1.541247 0.154843 -8.122216 -83.255829 32.328316 6.682588 -55.615768 23.548170 8.726608 8.085008 4.696274 -15.054990 2.318319 -2.442531 -7.498733 -10.828196 15.685898 19.222704 91.367737 -31.221439 25.675245 -8.103680 -4.708190 -15.018762 -1.678690 -5.471696 -7.025968 19.355375 -0.488312 2.019444 44.791904 10.385968 -0.602919 0.009499 -1.285180 -0.717796 0.008674 -0.017487 0.000645 47.001930 -0.050674 0.011381 
-1.503385 59.190975 -5.228268 67.173332 -1.979267 3.234201 19.475512 -8.089441 2.267707 2.775744 -4.117702 4.581630 12.135743 21.054180 -2.615116 10.365821 5.175759 -0.166220 1.677580 -0.136450 -8.306969 -84.227486 32.078911 5.332109 -55.436218 23.483746 8.652294 8.085008 4.696274 -15.054990 2.469625 -2.770673 -7.558271 -10.131892 16.226667 20.382549 88.194839 -30.958303 24.043938 -8.103680 -4.708190 -15.018762 -1.678695 -5.471695 -7.025967 19.355375 -0.488315 2.019444 44.801231 10.386003 -0.594802 0.009496 -1.285181 -0.717796 0.008671 -0.017489 0.000645 47.001930 -0.050041 0.011351 
-1.498240 59.232487 -5.286621 67.401085 -2.094407 4.035857 19.685347 -7.579690 2.679397 2.805434 -4.036862 5.080501 11.475924 21.190880 -3.663122 10.310723 5.507725 -0.323590 1.810605 -0.438279 -8.491812 -85.185066 31.807772 3.996033 -55.257492 23.401262 8.586448 8.085008 4.696274 -15.054990 2.628643 -3.110096 -7.617411 -9.431411 16.755310 21.561640 85.038628 -30.624853 22.436014 -8.103680 -4.708190 -15.018762 -1.678699 -5.471695 -7.025968 19.355375 -0.488313 2.019444 44.795029 10.371422 -0.603974 0.009504 -1.285181 -0.717795 0.008677 -0.017486 0.000645 46.992161 -0.047736 0.002271 
